<svg width="121" height="121" viewBox="0 0 121 121" fill="none" xmlns="http://www.w3.org/2000/svg">
<rect width="121" height="121" rx="60.5" fill="#8DD980"/>
<path d="M91.9804 41.462C91.9804 44.0614 89.0407 46.2413 88.4 48.6393C87.7394 51.1231 89.1728 54.4756 87.9177 56.6489C86.6626 58.8222 83.0063 59.2913 81.2194 61.0649C79.4325 62.8386 79.0031 66.4884 76.8 67.7633C74.597 69.0382 71.2742 67.585 68.7937 68.2488C66.3958 68.8896 64.2158 71.8292 61.6131 71.8292C59.0104 71.8292 56.8337 68.8896 54.4358 68.2488C51.9553 67.5883 48.5995 69.0217 46.4295 67.7633C44.2594 66.5049 43.7871 62.8551 42.0101 61.0649C40.2331 59.2748 36.5867 58.852 35.3118 56.6489C34.0368 54.4458 35.4901 51.1231 34.8295 48.6393C34.1888 46.2413 31.2491 44.0614 31.2491 41.462C31.2491 38.8626 34.1888 36.6826 34.8295 34.2847C35.4901 31.8009 34.0566 28.4484 35.3118 26.2751C36.5669 24.1017 40.2232 23.6327 42.0101 21.859C43.797 20.0853 44.2231 16.4356 46.4295 15.1606C48.6358 13.8857 51.9553 15.339 54.4358 14.6751C56.8337 14.0343 59.0137 11.0947 61.6131 11.0947C64.2125 11.0947 66.3958 14.0343 68.7937 14.6751C71.2742 15.3357 74.6267 13.9022 76.8 15.1606C78.9734 16.4191 79.4424 20.0688 81.2194 21.859C82.9963 23.6492 86.6428 24.072 87.9177 26.2751C89.1927 28.4781 87.7361 31.8009 88.4 34.2847C89.0407 36.6826 91.9804 38.8626 91.9804 41.462Z" fill="#00214E"/>
<path d="M44.5303 62.1778C47.6314 62.1778 50.1453 59.6638 50.1453 56.5628C50.1453 53.4617 47.6314 50.9478 44.5303 50.9478C41.4292 50.9478 38.9153 53.4617 38.9153 56.5628C38.9153 59.6638 41.4292 62.1778 44.5303 62.1778Z" fill="#E18477"/>
<path d="M46.4659 61.5172C49.3845 61.5172 51.7506 59.1511 51.7506 56.2325C51.7506 53.3138 49.3845 50.9478 46.4659 50.9478C43.5472 50.9478 41.1812 53.3138 41.1812 56.2325C41.1812 59.1511 43.5472 61.5172 46.4659 61.5172Z" fill="#A76962"/>
<path d="M97.9026 97.2486C87.1695 105.513 73.9894 109.967 60.4434 109.907C46.8974 109.847 33.7573 105.277 23.0975 96.9183L39.1696 89.3843C39.9351 89.0244 40.6697 88.6024 41.3661 88.1225C41.5775 87.9772 41.7889 87.8253 41.9904 87.6667C43.7396 86.3283 45.1794 84.6283 46.2115 82.6826C47.5327 80.1889 47.9687 77.4342 47.9885 74.6267C47.9885 72.7374 47.8861 70.8481 47.8663 68.9556C47.8531 67.9096 47.8421 66.8626 47.8333 65.8145L48.4939 66.1447L50.2048 67.0498L51.0008 67.1852L60.2094 68.7508L70.4882 70.5013L70.7986 81.0707L70.9506 86.2035V86.3125L74.9471 87.9376L97.9026 97.2486Z" fill="#E18477"/>
<path d="M70.9108 85.011L70.4022 85.0638C67.9462 85.2791 65.4728 84.9579 63.1532 84.1224C60.8337 83.2868 58.7236 81.957 56.9691 80.225L47.9256 69.8505C47.8959 68.8926 47.8596 69.4871 47.8497 68.5293C47.8365 67.4833 47.8255 66.4363 47.8167 65.3882L48.4772 65.7185L50.1948 66.607L50.9908 66.7424L60.1994 68.308L70.4781 70.0585L70.7886 80.628L70.9108 85.011Z" fill="#A76962"/>
<path d="M46.2181 45.1347C45.9571 45.465 45.7259 46.1091 45.4782 47.1528C44.9068 49.5739 47.4104 65.471 47.8894 70.1479L59.9187 79.0196C61.894 80.4944 64.1662 81.5222 66.578 82.0321C68.9898 82.5419 71.4836 82.5216 73.8868 81.9725C75.8256 81.5134 77.0543 81.2161 77.9296 79.6604C79.6207 76.6878 83.7725 66.518 84.0434 59.344C84.1193 57.3094 84.0698 54.2046 82.8147 52.4673C82.2036 51.625 81.8898 51.6085 82.1111 50.4162C82.3324 49.2238 82.666 47.9489 82.9402 46.7136C83.6966 43.3016 84.301 39.4471 83.2077 36.0517C82.6264 34.235 81.5992 33.0328 80.1393 31.8668C78.5803 30.6183 77.9362 30.6778 77.0015 32.5274C76.3706 33.7825 75.7365 34.8395 74.4582 35.5529C72.6053 36.5801 71.3435 35.9129 69.5038 35.7709C67.892 35.6487 68.0637 36.8939 67.7103 38.083C67.3444 39.3312 66.5533 40.412 65.4742 41.1382C64.492 41.7755 63.3475 42.1177 62.1766 42.1241C61.0057 42.1306 59.8576 41.801 58.8683 41.1745C58.5943 40.9779 58.2642 40.8748 57.927 40.8806C56.8238 40.94 56.7743 42.2645 56.5232 43.2157C55.9915 45.1975 53.6761 46.2941 51.6184 46.1355C48.2626 45.8845 47.0669 44.0151 46.2181 45.1347Z" fill="#E18477"/>
<path d="M72.7275 51.0435C72.8182 52.3266 73.0395 53.5971 73.3881 54.8352C73.7184 55.9285 74.2204 56.6089 74.881 57.5503C75.1091 57.861 75.307 58.1928 75.4722 58.5411C76.3442 60.5031 75.1849 62.6797 72.9785 62.6797H71.6144" stroke="#00214E" stroke-width="2.18376" stroke-miterlimit="10"/>
<path d="M63.139 65.917C64.727 67.6881 66.902 68.8249 69.2627 69.1175" stroke="#00214E" stroke-width="2.18376" stroke-miterlimit="10"/>
<path d="M56.9724 47.371C60.0302 46.7397 63.1752 46.6514 66.2636 47.1101" stroke="#00214E" stroke-width="2.18376" stroke-miterlimit="10"/>
<path d="M76.4763 47.4073C78.365 46.9671 80.3119 46.8322 82.2433 47.0076" stroke="#00214E" stroke-width="2.18376" stroke-miterlimit="10"/>
<path d="M97.9026 97.2483C87.1695 105.513 73.9894 109.966 60.4434 109.907C46.8974 109.847 33.7573 105.277 23.0975 96.918L39.1696 89.384C39.9351 89.0242 40.6697 88.6022 41.3661 88.1223C41.5775 87.977 41.7889 87.825 41.9904 87.6665C49.7688 93.2022 60.3844 96.6934 69.5666 92.5615C71.7532 91.5706 73.7614 89.972 74.9504 87.9175L97.9026 97.2483Z" fill="url(#paint0_linear_38_1312)"/>
<path d="M67.2116 60.3545C66.975 60.4783 66.7902 60.6821 66.6899 60.9296C66.5897 61.177 66.5806 61.452 66.6643 61.7056C66.7481 61.9591 66.9191 62.1746 67.147 62.3137C67.3749 62.4528 67.6448 62.5065 67.9085 62.4651" stroke="#00214E" stroke-width="2.18376" stroke-miterlimit="10"/>
<path d="M61.8212 50.5117C63.8393 50.5117 63.8393 53.6099 61.8212 53.6264H61.732C59.7172 53.6099 59.7172 50.5282 61.732 50.5117H61.8212Z" fill="#00214E"/>
<path d="M78.4251 50.2939C80.2946 50.2939 80.2946 53.1675 78.4251 53.184H78.3392C76.4698 53.1675 76.4698 50.3105 78.3392 50.2939H78.4251Z" fill="#00214E"/>
<path d="M44.517 58.2177C45.6134 58.2177 46.5021 57.3289 46.5021 56.2326C46.5021 55.1363 45.6134 54.2476 44.517 54.2476C43.4207 54.2476 42.532 55.1363 42.532 56.2326C42.532 57.3289 43.4207 58.2177 44.517 58.2177Z" fill="#F2D4CF"/>
<path d="M40.7551 61.0117C40.6295 60.9919 40.504 60.9688 40.3785 60.9391C39.2267 60.6743 38.2128 59.9943 37.5307 59.0291C36.8486 58.0639 36.5461 56.8812 36.6809 55.7071C36.8158 54.5329 37.3786 53.4496 38.2618 52.6643C39.145 51.8789 40.2866 51.4465 41.4685 51.4497C41.5368 51.4495 41.6033 51.4723 41.657 51.5145C41.7108 51.5567 41.7488 51.6158 41.7648 51.6823C41.7809 51.7487 41.774 51.8186 41.7454 51.8807C41.7168 51.9428 41.6681 51.9934 41.6072 52.0244C40.8907 52.4117 40.2843 52.9747 39.8449 53.6604C39.4055 54.3462 39.1474 55.1323 39.095 55.9451C39.0425 56.7578 39.1973 57.5706 39.5448 58.3072C39.8924 59.0438 40.4213 59.68 41.082 60.1563C41.168 60.2167 41.2314 60.3041 41.2621 60.4047C41.2928 60.5052 41.2891 60.6131 41.2516 60.7113C41.2141 60.8095 41.1449 60.8924 41.0549 60.9468C40.965 61.0012 40.8595 61.0241 40.7551 61.0117Z" fill="#F2D4CF"/>
<path d="M40.646 51.9716C41.3303 51.7107 42.0881 51.719 42.7665 51.9947C43.1226 52.153 43.4413 52.3845 43.7019 52.6742C43.9626 52.9639 44.1593 53.3052 44.2792 53.6759C44.4667 54.2054 44.5475 54.7666 44.517 55.3274" stroke="#F2D4CF" stroke-width="4.36753" stroke-miterlimit="10"/>
<defs>
<linearGradient id="paint0_linear_38_1312" x1="23.0975" y1="98.7842" x2="97.9026" y2="98.7842" gradientUnits="userSpaceOnUse">
<stop stop-color="#315676"/>
<stop offset="1" stop-color="#E1B9E0"/>
</linearGradient>
</defs>
</svg>
