<svg width="121" height="120" viewBox="0 0 121 120" fill="none" xmlns="http://www.w3.org/2000/svg">
<rect width="121" height="120" rx="60" fill="#8DD980"/>
<path d="M39.2125 54.6379C38.694 53.6159 38.1919 52.5808 37.7097 51.5425C36.7651 49.5116 35.8799 47.4315 35.4835 45.2303C34.1987 38.1287 37.9013 30.3851 43.2157 25.8319C50.7794 19.356 61.4942 16.9091 69.8275 11.1636C69.3656 13.9878 67.8435 16.5342 65.5667 18.2914C69.4675 15.3105 81.0906 20.2207 84.7238 22.0616C90.748 25.0697 95.8674 29.5977 99.5672 35.1904C95.645 33.6091 91.3753 33.0673 87.1779 33.6181C90.4412 36.7529 93.8366 40.0974 95.0719 44.4278C89.2158 40.2415 79.8652 42.256 76.298 48.4961C74.009 52.4924 74.0421 57.36 72.6647 61.7526C71.2115 66.4041 67.2909 69.3587 62.68 70.5969C59.2053 71.5403 52.3682 71.9661 49.2205 69.9418C48.2659 69.3292 47.569 68.3924 46.9282 67.4686C44.0508 63.3799 41.4723 59.092 39.2125 54.6379Z" fill="#00214E"/>
<path d="M42.8557 61.5068C45.9568 61.5068 48.4707 59.0137 48.4707 55.9382C48.4707 52.8628 45.9568 50.3696 42.8557 50.3696C39.7546 50.3696 37.2407 52.8628 37.2407 55.9382C37.2407 59.0137 39.7546 61.5068 42.8557 61.5068Z" fill="#845161"/>
<path d="M44.7912 60.8517C47.7098 60.8517 50.0759 58.5052 50.0759 55.6107C50.0759 52.7161 47.7098 50.3696 44.7912 50.3696C41.8725 50.3696 39.5065 52.7161 39.5065 55.6107C39.5065 58.5052 41.8725 60.8517 44.7912 60.8517Z" fill="#69303A"/>
<path d="M96.2279 96.3042C85.4948 104.5 72.3147 108.917 58.7688 108.858C45.2228 108.799 32.0826 104.266 21.4229 95.9766L37.495 88.5049C38.2604 88.148 38.995 87.7295 39.6914 87.2536C39.9028 87.1095 40.1142 86.9588 40.3157 86.8015C42.0649 85.4742 43.5047 83.7882 44.5368 81.8586C45.858 79.3855 46.294 76.6536 46.3138 73.8693C46.3138 72.9488 46.294 72.0251 46.2676 71.1014C46.2412 70.1777 46.2015 69.1982 46.1916 68.245C46.1784 67.2077 46.1674 66.1694 46.1586 65.1299L46.8192 65.4574L48.5367 66.3386L49.3327 66.4729L58.5413 68.0256L68.8201 69.7616L69.1306 80.2437L69.2594 84.597L69.2825 85.3341V85.4422L73.279 87.0538L96.2279 96.3042Z" fill="#845161"/>
<path d="M69.2527 84.5737L68.7441 84.6262C66.2881 84.8397 63.8147 84.5211 61.4952 83.6925C59.1757 82.8639 57.0655 81.545 55.311 79.8273L46.2676 68.9063C46.2378 67.9564 46.2015 69.1782 46.1916 68.225C46.1784 67.1877 46.1674 66.1493 46.1586 65.1099L46.8192 65.4374L48.5367 66.3186L49.3327 66.4529L58.5413 68.0055L68.8201 69.7416L69.1305 80.2237L69.2527 84.5737Z" fill="#69303A"/>
<path d="M45.7161 45.5511C44.686 46.4545 44.0236 47.6996 43.8532 49.0528C43.1629 55.4501 45.5509 63.0005 46.2148 69.4077L58.2441 78.206C60.2191 79.6692 62.4913 80.6889 64.9033 81.1946C67.3152 81.7002 69.8091 81.6797 72.2123 81.1345C74.1511 80.6792 75.3798 80.3843 76.2551 78.8415C77.9462 75.8934 82.098 65.8077 82.3688 58.693C82.4448 56.6719 82.3952 53.5928 81.1401 51.8731C80.5291 51.0378 80.2153 51.0182 80.4366 49.8389C80.6645 48.6073 80.9915 47.3888 81.2656 46.167C81.6639 44.3996 81.7753 42.5807 81.5959 40.7785C81.4143 39.1407 81.4209 37.6863 81.2458 36.019C81.1599 35.2099 80.7966 31.6689 80.7966 31.6689C78.6992 34.8005 74.9141 36.4448 71.413 37.5258C66.6501 38.9933 61.6924 39.7107 56.8635 40.9423C53.6629 41.771 48.4872 42.9503 45.7161 45.5511Z" fill="#845161"/>
<path d="M59.988 50.4873C62.0028 50.5037 62.0028 53.5599 59.988 53.5762H59.8988C57.8807 53.5599 57.8807 50.5037 59.8988 50.4873H59.988Z" fill="#00214E"/>
<path d="M77.3913 49.5542C79.2641 49.5542 79.2641 52.404 77.3913 52.4204H77.3087C75.4392 52.404 75.4392 49.5673 77.3087 49.5542H77.3913Z" fill="#00214E"/>
<path d="M61.4645 65.2114C63.0511 66.9695 65.2269 68.0973 67.5881 68.3855" stroke="#00214E" stroke-width="2.18376" stroke-miterlimit="10"/>
<path d="M55.2979 46.8222C58.3552 46.1934 61.5005 46.1047 64.589 46.5601" stroke="#00214E" stroke-width="2.18376" stroke-miterlimit="10"/>
<path d="M74.8018 46.8419C76.6899 46.4092 78.6351 46.2755 80.5654 46.4455" stroke="#00214E" stroke-width="2.18376" stroke-miterlimit="10"/>
<path d="M96.2279 96.3039C85.4948 104.5 72.3147 108.917 58.7688 108.858C45.2228 108.798 32.0826 104.266 21.4229 95.9764L37.495 88.5046C38.2604 88.1478 38.995 87.7293 39.6914 87.2533C39.9028 87.1092 40.1142 86.9585 40.3157 86.8013C48.0941 92.2913 58.7098 95.7536 67.8919 91.6558C70.0785 90.6731 72.0867 89.0877 73.2757 87.0502L96.2279 96.3039Z" fill="#FF2609"/>
<path d="M65.537 59.6987C65.2984 59.8199 65.1113 60.0216 65.0096 60.2676C64.9079 60.5135 64.8983 60.7874 64.9825 61.0398C65.0666 61.2922 65.239 61.5064 65.4686 61.6437C65.6981 61.7811 65.9695 61.8324 66.2339 61.7886" stroke="#00214E" stroke-width="2.18376" stroke-miterlimit="10"/>
<path d="M70.6268 50.186C71.4493 53.3143 72.133 56.4098 72.9158 59.5446C73.0076 59.8322 73.0413 60.135 73.0149 60.4355C72.8728 61.3363 71.7928 61.7065 70.8944 61.8997" stroke="#00214E" stroke-width="2.18376" stroke-miterlimit="10"/>
</svg>
