<svg width="120" height="121" viewBox="0 0 120 121" fill="none" xmlns="http://www.w3.org/2000/svg">
<rect width="120" height="121" rx="60" fill="#8DD980"/>
<path d="M97.0934 93.1431C86.449 101.407 73.3779 105.861 59.9439 105.801C46.5098 105.742 33.4782 101.171 22.9066 92.8128L38.8459 85.2788C39.605 84.919 40.3335 84.497 41.0242 84.0171C41.2339 83.8717 41.4435 83.7198 41.6433 83.5613C43.378 82.2229 44.806 80.5228 45.8296 78.5771C46.6034 77.0821 47.1175 75.4645 47.3495 73.7945C47.5094 72.7108 47.5905 71.6168 47.5919 70.5212C47.5919 68.632 47.4903 66.7427 47.4707 64.8501C47.4576 63.8019 47.4467 62.7549 47.4379 61.709L48.0931 62.0393L49.7964 62.9278L50.5858 63.0632L59.7183 64.6288L69.9121 66.3793L70.22 76.9488L70.3216 80.4036L70.3707 82.0815V82.1905L74.3342 83.8156L97.0934 93.1431Z" fill="#DE8276"/>
<path d="M70.3051 82.1936C69.1793 82.3889 68.021 82.208 67.0066 81.6783L47.4608 65.5666C47.4378 64.8201 47.4182 65.6029 47.4084 64.8564C47.3953 63.8083 47.3843 62.7613 47.3756 61.7153L48.0307 62.0456L49.7341 62.9341L50.5235 63.0695L59.656 64.6351L69.8498 66.3857L70.1577 76.9551L70.2593 80.41L70.3084 82.0879V82.1969L70.3051 82.1936Z" fill="#A76962"/>
<path d="M80.3941 52.8138C79.8848 53.3509 79.3266 53.8386 78.7268 54.2704C75.3202 56.7575 70.7736 57.5734 66.8887 58.9144C65.2508 59.4792 47.4903 64.569 47.4903 65.6755C47.4903 65.4344 45.7509 63.6937 43.5595 61.5798C39.8617 58.0087 37.2838 53.4224 36.1449 48.3888C35.0061 43.3552 35.3564 38.0953 37.1523 33.2604C40.7261 23.7909 52.1188 17.2643 61.6607 15.7548C66.204 15.0381 71.5958 14.6384 75.7919 16.8349C77.9374 17.9612 79.7226 19.6027 81.3605 21.4227C81.8715 21.9974 82.3672 22.5842 82.8476 23.1831C83.054 23.4342 83.2571 23.6852 83.4569 23.9395C90.9155 33.3859 88.2721 44.4673 80.3941 52.8138Z" fill="url(#paint0_linear_38_851)"/>
<path d="M80.3941 52.8139C79.8848 53.351 79.3266 53.8387 78.7268 54.2705C78.587 54.0248 78.4612 53.7711 78.3501 53.5108C77.4854 51.5291 77.0399 49.3789 76.7123 47.2352C76.2022 44.1157 75.8534 40.9714 75.6674 37.8153C75.3693 32.7485 73.2238 30.235 77.4919 26.2847C79.0279 24.8653 80.8571 23.8071 82.8476 23.1865C83.054 23.4375 83.2571 23.6886 83.4569 23.9429C90.9155 33.386 88.2721 44.4674 80.3941 52.8139Z" fill="url(#paint1_linear_38_851)"/>
<path d="M44.2147 58.0821C47.2902 58.0821 49.7833 55.5681 49.7833 52.4671C49.7833 49.366 47.2902 46.8521 44.2147 46.8521C41.1393 46.8521 38.6461 49.366 38.6461 52.4671C38.6461 55.5681 41.1393 58.0821 44.2147 58.0821Z" fill="#E18477"/>
<path d="M45.9835 57.4941C48.7369 57.4941 50.969 55.2434 50.969 52.467C50.969 49.6906 48.7369 47.4399 45.9835 47.4399C43.23 47.4399 40.9979 49.6906 40.9979 52.467C40.9979 55.2434 43.23 57.4941 45.9835 57.4941Z" fill="#A76962"/>
<path d="M46.3995 47.143C46.6714 50.73 46.6616 55.1097 46.7566 56.3913C47.0033 59.6039 47.2479 62.8155 47.4903 66.026L69.2537 78.8447C70.7612 79.4128 72.4245 79.3944 73.9192 78.7928C75.4139 78.1913 76.6327 77.0499 77.338 75.5913C80.4695 69.1241 85.4944 58.9114 84.8327 55.113C83.85 49.498 81.2295 47.5163 81.2295 47.5163L82.3203 40.9302C83.4241 34.2351 81.1476 27.8968 73.3908 27.1635C71.753 27.0116 69.9285 27.3254 68.9556 28.6433C66.3351 32.1972 67.8452 36.5703 63.9111 39.8733C59.1352 43.8467 48.4796 45.5807 45.9835 42.3736C45.9835 42.3736 46.2128 44.6427 46.3995 47.143Z" fill="#DE8276"/>
<path d="M62.7319 61.1538C64.3058 62.9261 66.4634 64.0632 68.805 64.3544" stroke="#00214E" stroke-width="2.18376" stroke-miterlimit="10"/>
<path d="M70.469 45.5605C70.4428 45.6761 74.8453 57.4941 74.8453 57.4941L68.9688 57.7814" stroke="#00214E" stroke-width="2.18376" stroke-miterlimit="10"/>
<path d="M62.4567 54.743C65.1993 54.743 67.4226 52.5012 67.4226 49.7358C67.4226 46.9703 65.1993 44.7285 62.4567 44.7285C59.7141 44.7285 57.4908 46.9703 57.4908 49.7358C57.4908 52.5012 59.7141 54.743 62.4567 54.743Z" fill="#00214E"/>
<path d="M79.2805 53.934C82.023 53.934 84.2463 51.6921 84.2463 48.9267C84.2463 46.1613 82.023 43.9194 79.2805 43.9194C76.5379 43.9194 74.3146 46.1613 74.3146 48.9267C74.3146 51.6921 76.5379 53.934 79.2805 53.934Z" fill="#00214E"/>
<path d="M66.4727 50.0296L74.8354 49.3096" stroke="#00214E" stroke-width="2.18376" stroke-miterlimit="10"/>
<path d="M56.5541 43.2684C59.5864 42.636 62.7054 42.5466 65.7685 43.0042" stroke="#00214E" stroke-width="2.18376" stroke-miterlimit="10"/>
<path d="M75.8967 43.3113C77.7687 42.8715 79.6985 42.7366 81.6127 42.9117" stroke="#00214E" stroke-width="2.18376" stroke-miterlimit="10"/>
<path d="M97.0934 93.1431C86.449 101.407 73.3779 105.861 59.9439 105.801C46.5098 105.741 33.4782 101.171 22.9066 92.8128L38.8459 85.2788C39.605 84.919 40.3335 84.497 41.0242 84.017C41.2339 83.8717 41.4435 83.7198 41.6433 83.5612C43.378 82.2228 44.806 80.5228 45.8296 78.5771C46.6034 77.0821 47.1175 75.4645 47.3495 73.7944C47.5808 74.0205 47.8235 74.2343 48.0767 74.4352C50.0851 75.9328 52.2649 77.1815 54.569 78.1543C55.6876 78.6248 56.8315 79.0317 57.9953 79.3731C61.5016 80.404 65.1624 80.7944 68.805 80.5258C69.3094 80.4862 69.8171 80.4367 70.3216 80.4003L70.3707 82.0782V82.1872L74.3342 83.8123L97.0934 93.1431Z" fill="#00214E"/>
<path d="M61.0187 46.981C63.0168 46.981 63.0168 50.0791 61.0187 50.0956H60.927C58.9255 50.0956 58.9255 46.9975 60.927 46.981H61.0154H61.0187Z" fill="#00214E"/>
<path d="M77.4395 46.522C79.2936 46.5385 79.2936 49.3955 77.4395 49.412H77.3544C75.5004 49.412 75.5004 46.5385 77.3544 46.522H77.4395Z" fill="#00214E"/>
<defs>
<linearGradient id="paint0_linear_38_851" x1="35.4687" y1="40.4344" x2="87.8724" y2="40.4344" gradientUnits="userSpaceOnUse">
<stop stop-color="#16243F"/>
<stop offset="1" stop-color="#6878B1"/>
</linearGradient>
<linearGradient id="paint1_linear_38_851" x1="71.8283" y1="24.0849" x2="88.3725" y2="50.2329" gradientUnits="userSpaceOnUse">
<stop stop-color="#16243F"/>
<stop offset="1" stop-color="#6878B1"/>
</linearGradient>
</defs>
</svg>
