<svg width="120" height="121" viewBox="0 0 120 121" fill="none" xmlns="http://www.w3.org/2000/svg">
<rect width="120" height="121" rx="60" fill="#8DD980"/>
<path d="M84.6361 49.435C84.5018 38.4725 82.5626 26.4498 72.7422 19.9893C63.875 14.1563 51.86 14.4403 43.0583 20.1478C41.8736 20.9117 40.7539 21.7734 39.7106 22.7241C35.8678 26.294 32.8814 30.6991 30.9777 35.6056C28.7496 41.2952 27.7447 47.3971 28.0296 53.5075C28.5767 65.7746 27.2566 78.0781 27.2566 90.3948C27.2566 90.8209 27.2566 91.3097 27.5842 91.5805C27.8766 91.7656 28.2267 91.835 28.5669 91.7754C33.6834 91.4881 38.2136 90.5963 43.1533 89.7672C49.3115 88.7367 55.9512 89.0307 62.1848 88.6376C65.8961 88.4196 69.7974 87.8152 73.5087 87.977C74.6912 88.0299 85.0455 89.579 85.0914 90.223C84.1021 76.5621 84.8031 63.0861 84.6361 49.435ZM48.4795 48.0544L43.8641 44.7514C47.5757 43.4825 51.0962 41.7042 54.3265 39.4667C57.2515 37.5141 59.6979 34.9163 61.4805 31.8699L63.3509 33.0623L48.4795 48.0544Z" fill="#00214E"/>
<path d="M97.0934 92.6047C86.449 100.869 73.3779 105.323 59.9439 105.263C46.5098 105.203 33.4782 100.633 22.9066 92.2744L38.8459 84.7404C39.3338 84.5078 39.8094 84.2498 40.2708 83.9676L40.6377 83.7363C40.7687 83.6538 40.8965 83.5679 41.0242 83.4787C43.0351 82.0798 44.6832 80.2141 45.8296 78.0388C47.1398 75.545 47.5722 72.7904 47.5919 69.9829C47.5919 68.4404 47.5296 66.8979 47.4903 65.3588C47.4903 65.0131 47.4838 64.6663 47.4707 64.3183C47.4576 63.2724 47.4467 62.2254 47.4379 61.1772H47.4609L48.0865 61.5075L49.7898 62.396L59.7118 64.097L69.9056 65.8476L70.1381 73.7747L70.2037 76.0471V76.4005L70.3576 81.6423L74.1148 83.1848L77.0629 84.387L97.0934 92.6047Z" fill="#F2A196"/>
<path d="M70.1381 73.7776C69.4321 74.2651 68.5887 74.5095 67.7338 74.4745C62.8924 73.9494 53.4388 70.1212 47.4968 63.0364C47.4968 62.6907 47.4903 62.3439 47.4772 61.996V61.1802L48.1028 61.5105L49.8062 62.399L59.7281 64.1L69.9219 65.8505L70.1381 73.7776Z" fill="#E88870"/>
<path d="M39.2488 56.2129C42.3242 56.2129 44.8174 53.699 44.8174 50.5979C44.8174 47.4968 42.3242 44.9829 39.2488 44.9829C36.1733 44.9829 33.6802 47.4968 33.6802 50.5979C33.6802 53.699 36.1733 56.2129 39.2488 56.2129Z" fill="#F2A196"/>
<path d="M41.2141 55.5523C44.2896 55.5523 46.7827 53.0383 46.7827 49.9373C46.7827 46.8362 44.2896 44.3223 41.2141 44.3223C38.1387 44.3223 35.6455 46.8362 35.6455 49.9373C35.6455 53.0383 38.1387 55.5523 41.2141 55.5523Z" fill="#E88870"/>
<path d="M77.0956 42.0959C80.9413 55.5323 72.7718 71.7795 67.747 71.7795C60.8681 71.7795 44.1623 66.2371 40.32 52.8008C36.4776 39.3644 41.6008 26.0733 51.7553 23.1205C61.9098 20.1677 73.25 28.6562 77.0956 42.0959Z" fill="#F2A196"/>
<path d="M58.0804 58.4189C59.6536 60.1922 61.8115 61.3295 64.1535 61.6195" stroke="#00214E" stroke-width="2.18376" stroke-miterlimit="10"/>
<path d="M64.8348 43.5098C64.8185 43.5758 66.4039 46.3371 67.2293 49.3196C67.6126 50.9151 67.791 52.5535 67.76 54.1948H63.3346" stroke="#00214E" stroke-width="2.18376" stroke-miterlimit="10"/>
<path d="M68.8999 40.6988C71.2141 39.51 73.8906 39.2549 76.3848 39.9854" stroke="#00214E" stroke-width="2.18376" stroke-miterlimit="10"/>
<path d="M49.5245 42.0136C51.1009 41.204 52.8348 40.7547 54.6029 40.6976C56.371 40.6405 58.1299 40.9771 59.7544 41.6833" stroke="#00214E" stroke-width="2.18376" stroke-miterlimit="10"/>
<path d="M55.2699 44.9399C57.2681 44.9565 57.2681 48.0381 55.2699 48.0513H55.1815C53.1833 48.0513 53.1833 44.9565 55.1815 44.9399H55.2699Z" fill="#00214E"/>
<path d="M71.6908 44.481C73.5448 44.481 73.5448 47.3545 71.6908 47.3677H71.6089C69.7516 47.3677 69.7516 44.4942 71.6089 44.481H71.6908Z" fill="#00214E"/>
<path d="M65.1624 19.5932C65.01 21.1487 64.7617 22.6931 64.4188 24.2174C63.8328 26.9072 62.8384 29.4897 61.4707 31.8736C59.6881 34.92 57.2417 37.5177 54.3167 39.4704C51.0864 41.7079 47.5658 43.4861 43.8543 44.7551C40.915 45.7619 37.9093 46.5598 34.8594 47.1431C34.9609 44.6229 34.8594 41.505 35.1673 38.5786C35.3966 36.4779 35.8552 34.473 36.7789 32.8579C39.2852 28.5843 42.9412 25.1142 47.3232 22.8499L47.3625 22.8301C52.2072 20.3166 59.7117 17.8361 65.1624 19.5932Z" fill="#00214E"/>
<path d="M97.0934 92.6045C86.449 100.869 73.3779 105.323 59.9439 105.263C46.5098 105.203 33.4782 100.633 22.9066 92.2742L38.8459 84.7402C39.605 84.3804 40.3335 83.9584 41.0242 83.4785C41.2339 83.3331 41.4435 83.1812 41.6433 83.0227C43.378 81.6843 44.806 79.9842 45.8296 78.0385C46.6034 76.5436 47.1175 74.9259 47.3495 73.2559C47.5808 73.4819 47.8235 73.6958 48.0767 73.8966C50.085 75.3954 52.2647 76.6451 54.569 77.619C55.6876 78.0896 56.8315 78.4965 57.9953 78.8378C61.5016 79.8688 65.1624 80.2591 68.805 79.9906C69.3094 79.9509 69.8171 79.9014 70.3216 79.8651L70.3707 81.5429V81.6519L74.3342 83.277L97.0934 92.6045Z" fill="#F2D4CF"/>
<path d="M61.4642 31.8866C59.6815 34.933 57.2352 37.5307 54.3102 39.4834C51.0799 41.7209 47.5593 43.4992 43.8478 44.7681L35.1608 38.5916L30.9778 35.6189C32.8815 30.7125 35.8679 26.3073 39.7107 22.7375C40.7534 21.7822 41.8732 20.916 43.0584 20.1479L47.3167 22.863L61.4642 31.8866Z" fill="url(#paint0_linear_38_1204)"/>
<defs>
<linearGradient id="paint0_linear_38_1204" x1="35.9895" y1="46.5352" x2="54.7632" y2="21.7542" gradientUnits="userSpaceOnUse">
<stop offset="0.29" stop-color="#00214E"/>
<stop offset="0.51" stop-color="#6878B1"/>
<stop offset="0.79" stop-color="#00214E"/>
</linearGradient>
</defs>
</svg>
