<svg width="121" height="121" viewBox="0 0 121 121" fill="none" xmlns="http://www.w3.org/2000/svg">
<rect width="121" height="121" rx="60.5" fill="#8DD980"/>
<path d="M57.2631 31.312C62.8578 31.312 67.3932 26.7766 67.3932 21.1819C67.3932 15.5872 62.8578 11.0518 57.2631 11.0518C51.6684 11.0518 47.133 15.5872 47.133 21.1819C47.133 26.7766 51.6684 31.312 57.2631 31.312Z" fill="url(#paint0_linear_38_832)"/>
<path d="M66.0159 76.1559C60.7247 76.0641 55.4476 75.5806 50.2279 74.7092C39.8302 72.9719 29.6505 69.6524 20.4155 64.5362C19.8672 64.229 19.3189 63.9185 18.764 63.6014C26.952 55.8296 33.0294 46.4261 38.1655 36.4512C41.8648 29.2541 43.7805 24.5078 51.7703 21.479C65.6625 16.2174 84.4298 21.3337 88.3801 36.9632C90.0481 43.5691 90.1109 50.4755 89.163 57.197C88.248 63.6972 85.8402 76.2154 85.8402 76.2154C85.8402 76.2154 68.6087 76.2022 66.0159 76.1559Z" fill="url(#paint1_linear_38_832)"/>
<path d="M102.226 97.2946C91.4929 105.559 78.3129 110.013 64.7669 109.953C51.2209 109.893 38.0807 105.323 27.421 96.9643L43.4931 89.4303C43.9851 89.1976 44.4647 88.9397 44.9299 88.6574L45.2998 88.4262C45.432 88.3436 45.5608 88.2577 45.6896 88.1685C47.7177 86.7687 49.3795 84.9019 50.535 82.7253C51.8562 80.2316 52.2922 77.4769 52.312 74.6694C52.312 73.1269 52.2492 71.5845 52.2096 70.0453C52.2096 69.6974 52.203 69.3506 52.1898 69.0049C52.1766 67.9567 52.1656 66.9097 52.1568 65.8638H52.1799L52.8107 66.1941L54.5283 67.0826L64.5329 68.7836L74.8116 70.5341L75.0461 78.4612L75.1122 80.7336V81.087L75.2674 86.3288L79.0559 87.8713L82.0286 89.0735L102.226 97.2946Z" fill="#F2A196"/>
<path d="M75.0462 78.468C74.3343 78.9555 73.4839 79.2 72.6218 79.1649C67.7368 78.6398 58.2078 74.8117 52.2096 67.7269C52.2096 67.379 52.203 67.0321 52.1898 66.6864V65.8706L52.8207 66.2009L54.5382 67.0894L64.5428 68.7904L74.8216 70.541L75.0462 78.468Z" fill="#E88870"/>
<path d="M43.8961 60.9029C46.9972 60.9029 49.5111 58.3889 49.5111 55.2879C49.5111 52.1868 46.9972 49.6729 43.8961 49.6729C40.795 49.6729 38.2811 52.1868 38.2811 55.2879C38.2811 58.3889 40.795 60.9029 43.8961 60.9029Z" fill="#F2A196"/>
<path d="M45.8779 60.2422C48.979 60.2422 51.4929 57.7283 51.4929 54.6272C51.4929 51.5261 48.979 49.0122 45.8779 49.0122C42.7768 49.0122 40.2629 51.5261 40.2629 54.6272C40.2629 57.7283 42.7768 60.2422 45.8779 60.2422Z" fill="#E88870"/>
<path d="M82.0583 46.786C85.9393 60.2223 77.6985 76.4695 72.6317 76.4695C65.6956 76.4695 48.8505 70.9272 44.9762 57.4908C41.1018 44.0544 46.2412 30.7634 56.4803 27.8073C66.7195 24.8511 78.1807 33.3595 82.0583 46.786Z" fill="#F2A196"/>
<path d="M61.1969 49.5771C63.2117 49.5937 63.2117 52.672 61.1969 52.6885H61.1044C59.0896 52.672 59.0896 49.5937 61.1044 49.5771H61.1936H61.1969Z" fill="#00214E"/>
<path d="M77.7975 48.3086C79.6703 48.3251 79.6703 51.1822 77.7975 51.1987H77.715C75.8455 51.1987 75.8455 48.3251 77.715 48.3086H77.7975Z" fill="#00214E"/>
<path d="M61.1936 57.435C64.6595 57.435 67.4692 54.6253 67.4692 51.1594C67.4692 47.6935 64.6595 44.8838 61.1936 44.8838C57.7277 44.8838 54.918 47.6935 54.918 51.1594C54.918 54.6253 57.7277 57.435 61.1936 57.435Z" stroke="white" stroke-width="2.18376" stroke-miterlimit="10"/>
<path d="M78.7421 56.4438C82.2081 56.4438 85.0177 53.6341 85.0177 50.1682C85.0177 46.7023 82.2081 43.8926 78.7421 43.8926C75.2762 43.8926 72.4666 46.7023 72.4666 50.1682C72.4666 53.6341 75.2762 56.4438 78.7421 56.4438Z" stroke="white" stroke-width="2.18376" stroke-miterlimit="10"/>
<path d="M69.2759 28.9205C67.8524 35.097 64.7509 40.342 59.083 44.1636C52.966 48.3979 46.5087 50.4391 39.4636 51.8429C39.6419 47.5127 39.1663 41.4221 41.3991 37.561C43.9332 33.2738 47.6345 29.7959 52.0709 27.5332C56.9625 25.0065 64.5296 22.5293 70.0257 24.2798C69.8729 25.8408 69.6225 27.3908 69.2759 28.9205Z" fill="url(#paint2_linear_38_832)"/>
<path d="M69.8506 47.4136C69.8242 47.5259 72.4666 58.0953 72.4666 58.0953H68.3379" stroke="#00214E" stroke-width="2.18376" stroke-miterlimit="10"/>
<path d="M73.6358 44.0415C75.9684 42.8494 78.6684 42.5942 81.183 43.328" stroke="#00214E" stroke-width="2.18376" stroke-miterlimit="10"/>
<path d="M55.4333 45.2505C57.0228 44.4409 58.7711 43.9915 60.554 43.9344C62.3368 43.8774 64.1104 44.2139 65.7484 44.9202" stroke="#00214E" stroke-width="2.18376" stroke-miterlimit="10"/>
<path d="M67.4692 51.1595L72.4666 50.7334" stroke="white" stroke-width="2.18376" stroke-miterlimit="10"/>
<path d="M102.223 97.2946C91.4896 105.559 78.3096 110.013 64.7636 109.953C51.2176 109.893 38.0774 105.323 27.4177 96.9643L43.4898 89.4303C44.2553 89.0704 44.9899 88.6484 45.6863 88.1685C45.8977 88.0232 46.1091 87.8713 46.3106 87.7127C48.0613 86.3737 49.5023 84.6725 50.535 82.7253C51.3135 81.2321 51.8307 79.6168 52.0643 77.9492C52.2975 78.1752 52.5423 78.3891 52.7975 78.59C54.8227 80.0876 57.0207 81.3362 59.344 82.3091C60.4719 82.7796 61.6253 83.1865 62.7988 83.5279C66.3343 84.5588 70.0257 84.9492 73.6986 84.6806C74.2072 84.641 74.7192 84.5914 75.2278 84.5551L75.2774 86.233V86.342L79.2739 87.967L102.223 97.2946Z" fill="#845161"/>
<path d="M61.2663 61.8243C61.3118 61.7528 61.3715 61.6914 61.4418 61.6439C61.512 61.5965 61.5913 61.564 61.6746 61.5485C61.758 61.533 61.8436 61.5348 61.9262 61.5539C62.0088 61.5729 62.0866 61.6087 62.1548 61.6592C62.8385 62.1414 64.0936 63.1653 65.8772 63.5187C68.3082 64.0042 70.4188 63.0299 70.9208 63.6574C71.2049 64.0109 70.858 64.4435 70.1942 64.9951C69.499 65.5148 68.7071 65.8904 67.8648 66.0997C67.0225 66.309 66.1468 66.3478 65.2893 66.2139C62.9475 65.7746 61.1936 63.0662 61.1936 62.1051C61.1925 62.0067 61.2176 61.9098 61.2663 61.8243Z" fill="white"/>
<defs>
<linearGradient id="paint0_linear_38_832" x1="47.133" y1="21.1819" x2="67.3965" y2="21.1819" gradientUnits="userSpaceOnUse">
<stop stop-color="#16243F"/>
<stop offset="1" stop-color="#6878B1"/>
</linearGradient>
<linearGradient id="paint1_linear_38_832" x1="36.339" y1="80.6512" x2="77.1469" y2="38.9086" gradientUnits="userSpaceOnUse">
<stop stop-color="#16243F"/>
<stop offset="1" stop-color="#6878B1"/>
</linearGradient>
<linearGradient id="paint2_linear_38_832" x1="39.414" y1="53.7883" x2="56.0047" y2="34.5223" gradientUnits="userSpaceOnUse">
<stop stop-color="#16243F"/>
<stop offset="1" stop-color="#6878B1"/>
</linearGradient>
</defs>
</svg>
