<svg width="121" height="120" viewBox="0 0 121 120" fill="none" xmlns="http://www.w3.org/2000/svg">
<rect width="121" height="120" rx="60" fill="#8DD980"/>
<path d="M80.8131 35.3313C79.4127 28.8062 78.8313 23.8305 73.1536 19.6737C68.6186 16.3587 62.8253 14.5866 57.1872 15.0288C52.4045 15.4055 46.4031 17.0925 41.7063 19.9423C39.6508 21.1455 37.8359 22.7133 36.3522 24.5675C34.268 27.2928 32.7751 30.6078 31.6389 34.1258C29.928 39.416 28.9965 45.1713 28.075 50.0815C26.4731 58.4377 25.0396 66.8233 23.6028 75.209C33.4919 76.1917 85.1168 75.9002 85.1168 75.9002C85.1168 75.9002 83.9344 49.8391 80.8131 35.3313ZM56.3152 42.0267L50.7662 40.248L67.4989 34.0243L68.7243 34.6991L56.3152 42.0267Z" fill="#00214E"/>
<path d="M97.9025 92.4844C87.1694 100.68 73.9894 105.097 60.4434 105.038C46.8974 104.979 33.7572 100.446 23.0975 92.1568L39.1696 84.6851C39.6615 84.4544 40.1411 84.1985 40.6064 83.9186L40.9763 83.6893C41.1084 83.6074 41.2372 83.5222 41.366 83.4338C43.3937 82.0465 45.0555 80.1962 46.2115 78.0388C47.5326 75.5657 47.9686 72.8338 47.9884 70.0495C47.9884 68.1758 47.8861 66.3021 47.8662 64.4252C47.853 63.3879 47.842 62.3495 47.8332 61.3101L48.4938 61.6376L50.2113 62.5188L60.2093 64.2025L70.4881 65.9385L70.7986 76.4206L70.9538 81.6191L74.7423 83.1488L77.7149 84.3411L97.9025 92.4844Z" fill="#F2D4CF"/>
<path d="M70.7358 75.2088C69.8374 75.7591 68.9886 76.0179 68.2454 75.9393C63.3604 75.4184 53.8314 71.622 47.8332 64.5957C47.8332 64.2528 47.8266 63.9089 47.8134 63.5639C47.8002 62.5244 47.7892 61.486 47.7804 60.4487L48.441 60.7763L50.1585 61.6574L60.1631 63.3444L70.4419 65.0805L70.7358 75.2088Z" fill="#DAAEA8"/>
<path d="M97.9025 92.4845C87.1694 100.68 73.9894 105.097 60.4434 105.038C46.8974 104.979 33.7572 100.447 23.0975 92.157L39.1696 84.6852C39.665 84.4537 40.144 84.1993 40.6064 83.922C48.4277 89.6249 59.3142 93.3362 68.7012 89.1466C71.3634 87.9608 73.7646 85.8546 74.7423 83.1489L77.7149 84.3413L97.9025 92.4845Z" fill="#FF2609"/>
<path d="M39.0209 55.9775C42.122 55.9775 44.6359 53.4844 44.6359 50.4089C44.6359 47.3335 42.122 44.8403 39.0209 44.8403C35.9199 44.8403 33.4059 47.3335 33.4059 50.4089C33.4059 53.4844 35.9199 55.9775 39.0209 55.9775Z" fill="#F2D4CF"/>
<path d="M41.0027 55.3223C44.1038 55.3223 46.6177 52.8291 46.6177 49.7537C46.6177 46.6782 44.1038 44.1851 41.0027 44.1851C37.9016 44.1851 35.3877 46.6782 35.3877 49.7537C35.3877 52.8291 37.9016 55.3223 41.0027 55.3223Z" fill="#DAAEA8"/>
<path d="M77.1831 41.9743C81.0608 55.3029 72.8233 71.4158 67.7565 71.4158C60.8204 71.4158 43.9754 65.9193 40.101 52.5907C36.2267 39.2621 41.3792 26.0842 51.6184 23.1525C61.8575 20.2208 73.3022 28.649 77.1831 41.9743Z" fill="#F2D4CF"/>
<path d="M67.0266 40.6607C69.3605 39.4818 72.0605 39.2322 74.5738 39.963" stroke="#00214E" stroke-width="2.18376" stroke-miterlimit="10"/>
<path d="M50.8818 41.4106C52.4714 40.6079 54.2197 40.1624 56.0025 40.1058C57.7854 40.0492 59.5589 40.3828 61.1969 41.083" stroke="#00214E" stroke-width="2.18376" stroke-miterlimit="10"/>
<path d="M57.8633 45.8648C57.9073 45.2748 56.772 44.7107 55.3276 44.6047C53.8831 44.4988 52.6765 44.8911 52.6325 45.4811C52.5885 46.0711 53.7238 46.6352 55.1683 46.7412C56.6127 46.8471 57.8193 46.4547 57.8633 45.8648Z" fill="#00214E"/>
<path d="M72.5026 46.186C73.9125 45.8572 74.9448 45.1239 74.8083 44.548C74.6718 43.9722 73.4181 43.7718 72.0082 44.1006C70.5982 44.4293 69.5659 45.1626 69.7024 45.7385C69.839 46.3144 71.0926 46.5147 72.5026 46.186Z" fill="#00214E"/>
<path d="M67.2909 48.6401C67.2909 48.6401 67.3867 50.4909 67.826 51.3589C68.0142 51.7323 68.3049 52.0501 68.4865 52.4202C69.2165 53.8419 68.034 54.1399 66.8978 54.1399" stroke="#00214E" stroke-width="2.18376" stroke-miterlimit="10"/>
<path d="M62.6932 51.8765C62.4546 51.9976 62.2675 52.1994 62.1658 52.4453C62.0641 52.6913 62.0545 52.9652 62.1386 53.2176C62.2228 53.47 62.3952 53.6842 62.6247 53.8215C62.8543 53.9588 63.1257 54.0102 63.3901 53.9663" stroke="#00214E" stroke-width="2.18376" stroke-miterlimit="10"/>
<path d="M56.7544 56.9567C56.7999 56.8858 56.8597 56.8249 56.9299 56.7778C57.0002 56.7307 57.0794 56.6985 57.1628 56.6832C57.2461 56.6678 57.3318 56.6696 57.4144 56.6885C57.497 56.7074 57.5748 56.7429 57.6429 56.7929C58.3266 57.2712 59.5818 58.2866 61.3653 58.6371C63.7963 59.1186 65.9069 58.1523 66.4089 58.7747C66.693 59.1252 66.3462 59.5543 65.6823 60.0849C64.9884 60.6043 64.1964 60.9803 63.3534 61.1907C62.5103 61.4011 61.6333 61.4417 60.7741 61.31C58.4323 60.8744 56.6785 58.1884 56.6785 57.2384C56.678 57.1395 56.7042 57.0422 56.7544 56.9567Z" fill="white"/>
<path d="M74.8116 31.3184L67.4989 34.0339L50.7662 40.2478H50.7629L38.2679 44.8894L38.0763 36.186L37.8187 24.4395L45.5773 22.0418L57.9666 18.2158L74.8116 31.3184Z" fill="#00214E"/>
<path d="M67.499 34.0341L50.7662 40.2578L38.0796 36.196L31.6422 34.1356C32.7784 30.6176 34.2846 27.3026 36.3555 24.5773C37.8401 22.7266 39.6549 21.1622 41.7096 19.9619C42.8656 20.581 44.1769 21.2722 45.5806 22.0518C53.326 26.2413 63.9351 32.072 67.499 34.0341Z" fill="url(#paint0_linear_38_1152)"/>
<defs>
<linearGradient id="paint0_linear_38_1152" x1="44.7912" y1="45.0861" x2="54.3072" y2="22.3261" gradientUnits="userSpaceOnUse">
<stop offset="0.29" stop-color="#00214E"/>
<stop offset="0.51" stop-color="#6878B1"/>
<stop offset="0.79" stop-color="#00214E"/>
</linearGradient>
</defs>
</svg>
