<svg width="121" height="121" viewBox="0 0 121 121" fill="none" xmlns="http://www.w3.org/2000/svg">
<rect width="121" height="121" rx="60.5" fill="#8DD980"/>
<path d="M97.2485 94.3848C86.5154 102.649 73.3354 107.103 59.7894 107.043C46.2434 106.983 33.1032 102.413 22.4435 94.0545L38.5156 86.5205C39.281 86.1607 40.0156 85.7387 40.7121 85.2588C40.9234 85.1134 41.1348 84.9615 41.3363 84.8029C43.0855 83.4646 44.5253 81.7645 45.5575 79.8188C46.3378 78.3238 46.8561 76.7062 47.09 75.0361C47.2513 73.9525 47.333 72.8585 47.3345 71.7629C47.3345 69.8737 47.2321 67.9844 47.2122 66.0918C47.199 65.0437 47.188 63.9966 47.1792 62.9507L47.8398 63.281L49.5573 64.1695L50.3533 64.3049L59.562 65.8705L69.8407 67.621L70.1512 78.1905L70.2536 81.6453L70.3031 83.3232V83.4322L74.2997 85.0573L97.2485 94.3848Z" fill="#E18477"/>
<path d="M70.2899 83.0262C69.1547 83.2216 67.9868 83.0406 66.9638 82.511L47.2552 66.3893C47.2321 65.6429 47.2123 66.4257 47.2023 65.6792C47.1891 64.6333 47.1781 63.5862 47.1693 62.5381L47.8299 62.8684L49.5474 63.7569L50.3434 63.8923L59.552 65.4579L69.8308 67.2084L70.1413 77.7779L70.2437 81.2327L70.2932 82.9106V83.0196L70.2899 83.0262Z" fill="#A76962"/>
<path d="M85.0276 29.4723C90.6943 32.6824 95.1572 37.6556 97.7374 43.6354C95.5441 43.813 93.3816 44.2635 91.2999 44.9764H91.2801C90.7384 45.1613 90.2011 45.365 89.6683 45.5874L89.338 45.7294L88.8128 45.9606C88.6378 46.0366 88.4627 46.1192 88.2909 46.2051C88.1192 46.2909 87.9606 46.3735 87.7724 46.4627C87.5841 46.5519 87.4421 46.6377 87.2604 46.7302C87.0788 46.8227 86.9599 46.8921 86.8112 46.9779C86.4545 47.1761 86.1044 47.3842 85.7609 47.5989C85.6244 47.6826 85.489 47.7684 85.3546 47.8565C84.0301 48.7139 82.7863 49.6901 81.6388 50.773C80.1888 52.1437 78.8346 53.7192 77.345 55.1263C76.0674 56.414 74.571 57.4642 72.9257 58.2278C69.7416 59.5985 66.0588 60.3912 62.7526 61.5307L47.2288 66.898C47.2288 66.6536 45.4716 64.9162 43.2652 62.799C40.3903 60.0659 38.0844 56.7911 36.4802 53.1633C34.876 49.5354 34.0052 45.626 33.9179 41.6602C33.3828 17.4628 61.808 10.3483 81.15 15.5339C84.2223 16.3612 87.1442 17.67 89.807 19.4116C91.5705 20.5519 93.1839 21.909 94.6095 23.4511C96.2731 25.2409 97.6091 27.3091 98.5565 29.5615L98.2956 29.5153C93.9112 28.7068 89.4172 28.6922 85.0276 29.4723Z" fill="url(#paint0_linear_38_1220)"/>
<path d="M97.7374 43.6353C95.5441 43.8129 93.3816 44.2634 91.2999 44.9763H91.2801C90.732 45.1502 90.1939 45.3542 89.6683 45.5873L89.338 45.7293L88.8062 45.9671C88.6311 46.0464 88.4594 46.1257 88.2843 46.2116C88.1093 46.2974 87.954 46.38 87.7658 46.4692C87.5775 46.5584 87.4355 46.6442 87.2538 46.7367C87.0722 46.8292 86.9532 46.8986 86.8046 46.9844C86.4479 47.1826 86.0978 47.3907 85.7543 47.6054L85.348 47.863C84.0234 48.7204 82.7797 49.6966 81.6322 50.7795C80.1822 52.1503 78.828 53.7258 77.3384 55.1328C76.8561 55.331 76.3772 55.5391 75.8983 55.7472C75.9577 55.7207 75.5185 50.1322 75.5317 49.5674C75.5868 47.4095 75.8333 45.2607 76.2682 43.1464C77.1072 39.0805 76.5721 35.2986 77.3813 31.1303C77.5523 30.1999 77.7728 29.2793 78.0419 28.3724C79.4225 27.3418 81.3448 27.0248 83.0194 26.7836C87.0325 26.2056 91.1612 26.7539 95.0223 27.9694C95.6609 28.1716 96.2882 28.4075 96.9017 28.6762C97.1924 28.8051 97.4764 28.9438 97.7572 29.0924C98.0047 29.2789 98.2729 29.4362 98.5565 29.5614C94.0828 28.736 89.4986 28.7058 85.0144 29.4722C90.686 32.68 95.1538 37.6535 97.7374 43.6353Z" fill="url(#paint1_linear_38_1220)"/>
<path d="M43.9292 59.3145C47.0302 59.3145 49.5442 56.8006 49.5442 53.6995C49.5442 50.5984 47.0302 48.0845 43.9292 48.0845C40.8281 48.0845 38.3141 50.5984 38.3141 53.6995C38.3141 56.8006 40.8281 59.3145 43.9292 59.3145Z" fill="#E18477"/>
<path d="M45.7095 58.7265C48.4858 58.7265 50.7365 56.4758 50.7365 53.6994C50.7365 50.9231 48.4858 48.6724 45.7095 48.6724C42.9331 48.6724 40.6824 50.9231 40.6824 53.6994C40.6824 56.4758 42.9331 58.7265 45.7095 58.7265Z" fill="#A76962"/>
<path d="M45.7854 48.4014L47.2321 67.2282L69.1768 80.0502C70.6973 80.6173 72.3745 80.598 73.8815 79.9959C75.3886 79.3939 76.6174 78.2522 77.3285 76.7935C80.4861 70.3263 85.5528 60.1169 84.8856 56.3153C83.8948 50.7003 81.2524 48.7185 81.2524 48.7185C81.6201 46.5165 81.9857 44.3212 82.349 42.1324C82.7652 39.6519 83.2936 37.0624 82.6793 34.5687C81.9758 31.7116 79.8156 30.4895 78.0386 28.3525C73.3617 34.3771 65.6724 37.7824 58.9575 41.234C55.4894 43.0572 45.7854 48.4014 45.7854 48.4014Z" fill="#E18477"/>
<path d="M56.3713 44.5069C59.4299 43.88 62.5749 43.7961 65.6625 44.2592" stroke="#00214E" stroke-width="2.18376" stroke-miterlimit="10"/>
<path d="M75.8752 44.5435C77.7633 44.1073 79.7086 43.9724 81.6388 44.1439" stroke="#00214E" stroke-width="2.18376" stroke-miterlimit="10"/>
<path d="M68.2686 57.2534C68.03 57.3755 67.8429 57.579 67.7412 57.827C67.6395 58.075 67.6299 58.3512 67.714 58.6057C67.7982 58.8602 67.9706 59.0762 68.2001 59.2146C68.4296 59.3531 68.7011 59.4049 68.9655 59.3607" stroke="#00214E" stroke-width="2.18376" stroke-miterlimit="10"/>
<path d="M74.2303 53.8379C74.2303 53.8379 74.3261 55.7041 74.7654 56.5793C74.9537 56.9559 75.2476 57.2729 75.426 57.6495C76.1559 59.0797 74.9768 59.3835 73.8373 59.3835" stroke="#00214E" stroke-width="2.18376" stroke-miterlimit="10"/>
<path d="M97.2485 94.3848C86.5154 102.649 73.3354 107.103 59.7894 107.043C46.2434 106.983 33.1032 102.413 22.4435 94.0545L38.5156 86.5205C39.281 86.1607 40.0156 85.7387 40.7121 85.2587C40.9234 85.1134 41.1348 84.9615 41.3363 84.8029C43.0855 83.4645 44.5253 81.7645 45.5575 79.8188C46.3378 78.3238 46.8561 76.7062 47.09 75.0361C47.3233 75.2622 47.568 75.476 47.8233 75.6769C49.8485 77.1745 52.0464 78.4232 54.3697 79.396C55.4977 79.8665 56.6511 80.2734 57.8246 80.6148C61.3601 81.6457 65.0514 82.0361 68.7243 81.7675C69.233 81.7279 69.7449 81.6783 70.2536 81.642L70.3031 83.3199V83.4289L74.2997 85.054L97.2485 94.3848Z" fill="#00214E"/>
<path d="M63.2811 55.7372C66.747 55.7372 69.5567 52.9275 69.5567 49.4616C69.5567 45.9957 66.747 43.186 63.2811 43.186C59.8152 43.186 57.0055 45.9957 57.0055 49.4616C57.0055 52.9275 59.8152 55.7372 63.2811 55.7372Z" stroke="white" stroke-width="2.18376" stroke-miterlimit="10"/>
<path d="M80.8329 54.7465C84.2988 54.7465 87.1085 51.9368 87.1085 48.4709C87.1085 45.005 84.2988 42.1953 80.8329 42.1953C77.367 42.1953 74.5573 45.005 74.5573 48.4709C74.5573 51.9368 77.367 54.7465 80.8329 54.7465Z" stroke="white" stroke-width="2.18376" stroke-miterlimit="10"/>
<path d="M69.5566 49.4616L74.5573 49.0322" stroke="white" stroke-width="2.18376" stroke-miterlimit="10"/>
<path d="M62.812 63.1622C62.8575 63.0907 62.9173 63.0293 62.9875 62.9818C63.0578 62.9344 63.137 62.9019 63.2204 62.8864C63.3037 62.8709 63.3894 62.8727 63.472 62.8918C63.5546 62.9108 63.6324 62.9466 63.7005 62.997C64.3842 63.4793 65.6427 64.5032 67.4263 64.8566C69.8572 65.3421 71.9645 64.3678 72.4699 64.9953C72.7539 65.3487 72.4071 65.7814 71.7432 66.333C71.0474 66.8526 70.2549 67.2281 69.412 67.4374C68.5692 67.6467 67.6931 67.6856 66.835 67.5518C64.4965 67.1125 62.7394 64.4041 62.7394 63.4429C62.7399 63.3448 62.7649 63.2483 62.812 63.1622Z" fill="white"/>
<path d="M64.4185 49.5964C64.4625 49.0015 63.3272 48.4327 61.8828 48.3258C60.4383 48.219 59.2317 48.6146 59.1877 49.2095C59.1437 49.8044 60.279 50.3732 61.7234 50.4801C63.1679 50.5869 64.3745 50.1913 64.4185 49.5964Z" fill="#00214E"/>
<path d="M78.9839 49.9345C80.4151 49.7114 81.5007 49.0528 81.4088 48.4634C81.317 47.874 80.0823 47.5771 78.6512 47.8002C77.2201 48.0233 76.1345 48.6819 76.2263 49.2713C76.3182 49.8607 77.5528 50.1576 78.9839 49.9345Z" fill="#00214E"/>
<defs>
<linearGradient id="paint0_linear_38_1220" x1="46.5418" y1="52.5566" x2="95.2899" y2="11.9833" gradientUnits="userSpaceOnUse">
<stop stop-color="#16243F"/>
<stop offset="1" stop-color="#6878B1"/>
</linearGradient>
<linearGradient id="paint1_linear_38_1220" x1="75.535" y1="41.1515" x2="98.5565" y2="41.1515" gradientUnits="userSpaceOnUse">
<stop stop-color="#16243F"/>
<stop offset="1" stop-color="#6878B1"/>
</linearGradient>
</defs>
</svg>
