<svg width="120" height="120" viewBox="0 0 120 120" fill="none" xmlns="http://www.w3.org/2000/svg">
<rect width="120" height="120" rx="60" fill="#8DD980"/>
<path d="M63.0824 26.5949C62.6337 28.521 60.0688 29.4709 58.9846 30.981C57.861 32.5501 57.7595 35.2721 56.1479 36.2745C54.5363 37.2768 52.0468 36.1631 50.1469 36.4776C48.3093 36.7822 46.3209 38.6657 44.3981 38.2169C42.4753 37.7682 41.5221 35.2001 40.012 34.1158C38.443 32.9923 35.721 32.8907 34.7186 31.2791C33.7163 29.6675 34.83 27.1813 34.5155 25.2781C34.2109 23.4405 32.3274 21.4554 32.7761 19.5294C33.2249 17.6033 35.793 16.6533 36.8773 15.1433C38.0008 13.5742 38.1023 10.8522 39.714 9.84983C41.3256 8.84748 43.8118 9.9612 45.7149 9.64674C47.5526 9.34211 49.5376 7.46189 51.4637 7.91065C53.3898 8.35941 54.3397 10.9242 55.8498 12.0085C57.4188 13.132 60.1409 13.2336 61.1432 14.8452C62.1456 16.4568 61.0319 18.9463 61.3463 20.8494C61.651 22.6838 63.5476 24.6721 63.0824 26.5949Z" fill="url(#paint0_linear_38_1169)"/>
<path d="M68.9196 70.7539C68.0942 71.7366 67.3801 72.811 66.5415 73.7774C62.0801 78.907 52.358 75.5364 47.5231 72.4671C43.9756 70.2233 41.2994 66.8395 39.0064 63.3149C36.1894 58.9682 33.8342 54.2414 32.8155 49.1642C28.1477 25.9103 57.979 15.7952 74.7077 27.2108C80.9314 31.4691 86.559 41.0209 85.1898 48.6761C84.4921 52.561 81.7274 56.0561 82.0222 59.9902C82.3498 64.2288 86.1823 68.2677 84.5772 72.205C83.9483 73.7446 82.5955 74.8452 81.4948 76.0932C80.011 77.7802 78.93 79.8897 78.799 82.1303C78.668 84.3708 79.6015 86.7162 81.4523 88.0002C76.8893 87.3909 74.0755 81.9272 75.258 77.4788C75.6445 76.0179 76.3554 74.6552 76.6665 73.1746C76.9777 71.694 76.7976 69.9743 75.6675 68.972C74.2164 67.6847 71.8513 68.1727 70.3249 69.3716C69.8119 69.7848 69.3412 70.2478 68.9196 70.7539Z" fill="url(#paint1_linear_38_1169)"/>
<path d="M97.0934 99.6058C86.449 107.802 73.3779 112.219 59.9439 112.159C46.5098 112.1 33.4782 107.568 22.9066 99.2782L38.8459 91.8064C39.3338 91.5757 39.8094 91.3199 40.2708 91.0399L40.6377 90.8107C40.7687 90.7288 40.8965 90.6436 41.0242 90.5552C43.0344 89.1697 44.6824 87.3217 45.8296 85.1667C47.1398 82.6936 47.5722 79.9617 47.5919 77.1774C47.5919 75.3037 47.4903 73.4301 47.4707 71.5531C47.4576 70.5158 47.4467 69.4775 47.4379 68.438L47.5034 68.4707L48.0865 68.7721L49.7898 69.6533L59.7118 71.3402L69.9056 73.0763L70.1414 81.0918L70.2135 83.5485L70.3674 88.747L74.1246 90.2767L77.0727 91.469L97.0934 99.6058Z" fill="#845161"/>
<path d="M70.1413 81.0819C69.4431 81.5471 68.6144 81.7767 67.7763 81.737C62.9316 81.2162 53.4814 77.4197 47.5328 70.3935C47.5328 70.0484 47.5263 69.7045 47.5132 69.3617V68.4478L48.0962 68.7491L49.7996 69.6303L59.7215 71.3172L69.9153 73.0533L70.1413 81.0819Z" fill="#69303A"/>
<path d="M97.0934 99.6091C86.449 107.805 73.3779 112.222 59.9439 112.163C46.5098 112.103 33.4782 107.571 22.9066 99.2815L38.8459 91.8098C39.3345 91.5784 39.8112 91.3226 40.2741 91.0433C48.0275 96.7462 58.8241 100.461 68.1334 96.2843C70.7736 95.0985 73.155 92.9923 74.1246 90.2866L77.0727 91.479L97.0934 99.6091Z" fill="url(#paint2_linear_38_1169)"/>
<path d="M39.2488 63.5181C42.3242 63.5181 44.8174 61.0249 44.8174 57.9495C44.8174 54.874 42.3242 52.3809 39.2488 52.3809C36.1733 52.3809 33.6802 54.874 33.6802 57.9495C33.6802 61.0249 36.1733 63.5181 39.2488 63.5181Z" fill="#845161"/>
<path d="M41.2141 62.8628C44.2896 62.8628 46.7827 60.3696 46.7827 57.2942C46.7827 54.2187 44.2896 51.7256 41.2141 51.7256C38.1387 51.7256 35.6455 54.2187 35.6455 57.2942C35.6455 60.3696 38.1387 62.8628 41.2141 62.8628Z" fill="#69303A"/>
<path d="M77.0956 49.5149C80.9413 62.8435 72.7718 78.9433 67.747 78.9433C60.8681 78.9433 44.1623 73.45 40.32 60.1214C36.4776 46.7928 41.6008 33.6247 51.7553 30.693C61.9098 27.7613 73.25 36.1895 77.0956 49.5149Z" fill="#845161"/>
<path d="M55.8104 57.7333C59.2477 57.7333 62.0341 55.9969 62.0341 53.8549C62.0341 51.713 59.2477 49.9766 55.8104 49.9766C52.3731 49.9766 49.5867 51.713 49.5867 53.8549C49.5867 55.9969 52.3731 57.7333 55.8104 57.7333Z" stroke="white" stroke-width="2.18376" stroke-miterlimit="10"/>
<path d="M73.761 56.8949C77.1982 56.8949 79.9847 55.1585 79.9847 53.0166C79.9847 50.8746 77.1982 49.1382 73.761 49.1382C70.3237 49.1382 67.5372 50.8746 67.5372 53.0166C67.5372 55.1585 70.3237 56.8949 73.761 56.8949Z" stroke="white" stroke-width="2.18376" stroke-miterlimit="10"/>
<path d="M65.6898 33.1562C64.9037 34.7089 63.2659 36.0585 62.293 37.6471C61.0188 39.7272 60.0557 41.9874 58.9748 44.1722C58.1722 45.8101 57.278 47.4282 55.9186 48.6304C54.5592 49.8326 52.6429 50.5434 50.9036 50.0422C49.7112 49.6982 48.7449 48.8466 47.6771 48.2144C46.6092 47.5822 45.2433 47.1596 44.1492 47.7492C42.5376 48.614 42.5605 50.9627 41.4075 52.381C38.764 55.6337 33.9128 51.2509 33.3265 48.4109C32.4748 44.2607 35.8782 40.7918 38.3546 37.9289C40.4215 35.5376 43.2124 31.8886 46.4552 31.0926C46.5142 31.0926 65.454 23.5586 65.454 23.5586C65.6243 26.0907 66.6463 29.8347 66.0371 32.2587C65.9556 32.57 65.8391 32.8711 65.6898 33.1562Z" fill="url(#paint3_linear_38_1169)"/>
<path d="M64.9888 50.1372C64.9724 50.2158 66.8035 55.3389 67.9139 58.4311C68.0047 58.6903 68.0323 58.9674 67.9944 59.2393C67.9564 59.5113 67.854 59.7702 67.6957 59.9946C67.5373 60.2189 67.3277 60.4022 67.0842 60.5291C66.8406 60.656 66.5703 60.7229 66.2957 60.7241H65.1034" stroke="#00214E" stroke-width="2.18376" stroke-miterlimit="10"/>
<path d="M68.7427 46.7926C71.0569 45.6136 73.7334 45.3606 76.2275 46.085" stroke="#00214E" stroke-width="2.18376" stroke-miterlimit="10"/>
<path d="M50.6907 48.0047C52.2668 47.2011 54.0008 46.7552 55.769 46.6985C57.5373 46.6419 59.2962 46.9761 60.9205 47.6771" stroke="#00214E" stroke-width="2.18376" stroke-miterlimit="10"/>
<path d="M62.0342 53.855L67.5831 53.4292" stroke="white" stroke-width="2.18376" stroke-miterlimit="10"/>
<path d="M56.6425 51.6338C58.6406 51.6338 58.6406 54.7031 56.6425 54.7194H56.554C54.5526 54.7031 54.5526 51.6469 56.554 51.6338H56.6425Z" fill="#00214E"/>
<path d="M73.1058 50.6216C74.9599 50.638 74.9599 53.4714 73.1058 53.4878H73.0239C71.1667 53.4878 71.1667 50.638 73.0239 50.6216H73.1058Z" fill="#00214E"/>
<path d="M62.6631 58.8472C62.4041 58.876 62.1635 58.9952 61.9837 59.184C61.804 59.3727 61.6966 59.6189 61.6804 59.879C61.6844 60.0071 61.7168 60.1327 61.7751 60.2468C61.8334 60.3609 61.9163 60.4607 62.0178 60.539C62.1192 60.6173 62.2368 60.6721 62.3619 60.6996C62.4871 60.7271 62.6168 60.7265 62.7417 60.6979" stroke="#00214E" stroke-width="2.18376" stroke-miterlimit="10"/>
<path d="M56.8816 63.7998C56.9264 63.7289 56.9853 63.6681 57.0547 63.6211C57.1241 63.574 57.2024 63.5418 57.2848 63.5264C57.3672 63.5111 57.4519 63.5129 57.5336 63.5317C57.6153 63.5506 57.6922 63.5861 57.7595 63.636C58.4408 64.1142 59.6856 65.1297 61.4544 65.4802C63.8653 65.9617 65.9584 64.9954 66.4563 65.6178C66.738 65.9683 66.3941 66.3941 65.7357 66.9444C65.0457 67.4599 64.2597 67.8323 63.4238 68.0399C62.588 68.2475 61.719 68.286 60.8681 68.1531C58.5489 67.7174 56.8063 65.0314 56.8063 64.0782C56.8062 63.9803 56.8322 63.8842 56.8816 63.7998Z" fill="white"/>
<defs>
<linearGradient id="paint0_linear_38_1169" x1="32.7735" y1="19.5559" x2="63.0798" y2="26.6196" gradientUnits="userSpaceOnUse">
<stop stop-color="#16243F"/>
<stop offset="1" stop-color="#6878B1"/>
</linearGradient>
<linearGradient id="paint1_linear_38_1169" x1="32.334" y1="55.2503" x2="85.3929" y2="55.2503" gradientUnits="userSpaceOnUse">
<stop stop-color="#16243F"/>
<stop offset="1" stop-color="#6878B1"/>
</linearGradient>
<linearGradient id="paint2_linear_38_1169" x1="19.1462" y1="111.369" x2="87.1158" y2="92.5239" gradientUnits="userSpaceOnUse">
<stop stop-color="#315676"/>
<stop offset="1" stop-color="#E1B9E0"/>
</linearGradient>
<linearGradient id="paint3_linear_38_1169" x1="36.6676" y1="32.1866" x2="69.0965" y2="45.7085" gradientUnits="userSpaceOnUse">
<stop stop-color="#16243F"/>
<stop offset="1" stop-color="#6878B1"/>
</linearGradient>
</defs>
</svg>
