<svg width="121" height="121" viewBox="0 0 121 121" fill="none" xmlns="http://www.w3.org/2000/svg">
<rect width="121" height="121" rx="60.5" fill="#8DD980"/>
<path d="M72.1065 17.8589C68.143 16.5377 63.8987 15.4543 59.7073 15.9266C53.0579 16.69 46.7283 19.1967 41.3594 23.1931C30.8263 31.0475 28.1179 45.2502 23.7184 56.9855C22.0669 61.3883 20.4154 65.8341 19.6987 70.4846C17.6113 84.281 26.8232 89.2553 38.7633 92.6441C53.8082 96.9148 70.2734 95.6398 84.9417 90.4873C97.4368 86.0976 102.447 75.515 99.805 62.8747C98.4838 56.6387 95.9934 50.7198 93.4831 44.8571C88.7071 33.7328 84.192 21.938 72.1065 17.8589Z" fill="#00214E"/>
<path d="M101.598 92.5322C90.8649 100.795 77.6851 105.248 64.1394 105.189C50.5937 105.129 37.4537 100.559 26.7935 92.2019L42.8656 84.6679C43.3575 84.4352 43.8371 84.1773 44.3024 83.895L44.6723 83.6638C44.8044 83.5812 44.9332 83.4953 45.062 83.4061C47.0917 82.0026 48.7537 80.1311 49.9074 77.9497C51.2286 75.456 51.6646 72.7046 51.6844 69.8971C51.6844 68.0045 51.582 66.1185 51.5622 64.2226C51.549 63.1767 51.538 62.1297 51.5292 61.0815L52.1898 61.4118L53.9073 62.3003L63.9119 64.0013L74.1907 65.7519L74.5012 76.3213L74.6465 81.5829L78.435 83.1254L81.4076 84.3277L101.598 92.5322Z" fill="#E18477"/>
<path d="M74.4846 75.2278C73.5862 75.7827 72.7374 76.0436 71.9942 75.9643C67.1092 75.4392 57.5802 71.6111 51.582 64.5263C51.582 64.1783 51.5754 63.8315 51.5622 63.4858C51.549 62.4377 51.538 61.3907 51.5292 60.3447L52.1898 60.675L53.9073 61.5635L63.9119 63.2645L74.1907 65.0151L74.4846 75.2278Z" fill="#A76962"/>
<path d="M101.598 92.532C90.8649 100.795 77.6851 105.248 64.1394 105.189C50.5937 105.129 37.4537 100.559 26.7935 92.2017L42.8656 84.6677C43.361 84.4343 43.8399 84.1778 44.3024 83.8981C52.1237 89.6486 63.0102 93.3908 72.3972 89.1663C75.0594 87.9707 77.4606 85.8634 78.4383 83.1187L81.4109 84.3209L101.598 92.532Z" fill="#FF2609"/>
<path d="M43.1596 56.1367C46.2606 56.1367 48.7746 53.6228 48.7746 50.5217C48.7746 47.4207 46.2606 44.9067 43.1596 44.9067C40.0585 44.9067 37.5446 47.4207 37.5446 50.5217C37.5446 53.6228 40.0585 56.1367 43.1596 56.1367Z" fill="#E18477"/>
<path d="M45.4716 55.4761C48.5726 55.4761 51.0866 52.9622 51.0866 49.8611C51.0866 46.76 48.5726 44.2461 45.4716 44.2461C42.3705 44.2461 39.8566 46.76 39.8566 49.8611C39.8566 52.9622 42.3705 55.4761 45.4716 55.4761Z" fill="#A76962"/>
<path d="M71.8951 71.7038C65.0778 72.9787 48.1139 66.1614 44.2363 52.7251C43.4216 49.9258 42.9883 47.0294 42.9481 44.1143C42.9481 43.5429 42.9481 42.9748 42.9745 42.4133C43.3973 33.0527 48.1866 25.238 55.7536 23.0415C56.1896 22.916 56.6289 22.8103 57.0748 22.7112C59.7213 22.2182 62.4499 22.4092 65.0019 23.2661C68.2927 24.3914 71.2714 26.2779 73.6952 28.7721C74.7179 29.798 75.6589 30.9024 76.5093 32.0751C78.6752 35.079 80.3004 38.4378 81.3118 42.0004C85.2159 55.4566 76.9849 70.7558 71.8951 71.7038Z" fill="#E18477"/>
<path d="M70.4584 42.5718C70.5505 43.8558 70.7718 45.1272 71.119 46.3669C71.4493 47.4601 71.9513 48.1372 72.6119 49.0819C72.8412 49.3919 73.0392 49.7238 73.2031 50.0728C74.0784 52.0347 72.9191 54.2113 70.7127 54.2113H69.3618" stroke="#00214E" stroke-width="2.18376" stroke-miterlimit="10"/>
<path d="M64.5197 51.6743C64.281 51.7964 64.094 51.9999 63.9923 52.2479C63.8906 52.4959 63.881 52.7721 63.9651 53.0266C64.0493 53.2811 64.2217 53.4971 64.4512 53.6355C64.6807 53.774 64.9522 53.8258 65.2166 53.7816" stroke="#00214E" stroke-width="2.18376" stroke-miterlimit="10"/>
<path d="M72.0206 38.5155C74.3542 37.327 77.0529 37.0719 79.5679 37.802" stroke="#00214E" stroke-width="2.18376" stroke-miterlimit="10"/>
<path d="M54.6901 39.4703C56.2796 38.6609 58.0279 38.2117 59.8108 38.1547C61.5936 38.0976 63.3671 38.434 65.0052 39.14" stroke="#00214E" stroke-width="2.18376" stroke-miterlimit="10"/>
<path d="M69.4311 21.3666C66.1546 20.7292 62.2241 20.8415 59.0103 20.8811C57.2565 20.9009 55.4795 21.0132 53.8082 21.5417C49.1841 23.0313 46.1751 27.487 44.299 31.979C43.8201 33.1251 38.869 44.5302 38.978 44.5533C42.1488 45.5838 45.5442 44.1503 48.5202 42.6541C57.3522 38.205 66.726 31.0542 70.5244 21.6011C70.171 21.5219 69.8043 21.4393 69.4311 21.3666Z" fill="#00214E"/>
<path d="M61.1044 56.9921C61.1496 56.9206 61.209 56.8593 61.279 56.8119C61.3489 56.7645 61.4279 56.732 61.511 56.7165C61.5941 56.701 61.6795 56.7028 61.7618 56.7218C61.8442 56.7408 61.9217 56.7766 61.9896 56.8269C62.6766 57.3092 63.9317 58.3331 65.7153 58.6898C68.1463 59.172 70.2569 58.201 70.7589 58.8252C71.043 59.1786 70.6962 59.6113 70.0323 60.1629C69.337 60.6835 68.5445 61.0596 67.7015 61.2689C66.8585 61.4782 65.9821 61.5166 65.1241 61.3817C62.7856 60.9424 61.0284 58.234 61.0284 57.2761C61.0284 57.1764 61.0546 57.0785 61.1044 56.9921Z" fill="white"/>
<path d="M59.2581 43.2324C61.2729 43.2489 61.2729 46.3273 59.2581 46.3438H59.1689C57.1541 46.3273 57.1541 43.2489 59.1689 43.2324H59.2581Z" fill="#00214E"/>
<path d="M75.8587 43.0142C77.7315 43.0142 77.7315 45.8877 75.8587 45.9009H75.7762C73.9034 45.9009 73.9034 43.0274 75.7762 43.0142H75.8587Z" fill="#00214E"/>
</svg>
