<svg width="160" height="153" viewBox="0 0 160 153" fill="none" xmlns="http://www.w3.org/2000/svg">
<path d="M41.8434 105.807L43.4685 104.882L40.5474 99.7501C28.2304 78.1117 35.9056 50.4155 57.5441 38.0984C79.1825 25.7814 107.771 32.8356 120.088 54.474L123.009 59.6056C125.233 58.3399 127.626 57.7701 130.408 58.6781L126.464 51.7503C112.102 26.5198 79.9286 17.5431 54.6125 31.9536C29.2964 46.3641 20.5395 78.5261 34.95 103.842L38.8934 110.77C38.6776 108.401 39.6197 107.073 41.8434 105.807Z" fill="white" stroke="black" stroke-width="1.5873"/>
<path d="M45.9224 104.617L42.3303 106.662C39.6789 108.171 38.5881 110.831 39.6578 113.506C40.1447 114.361 40.5486 113.678 40.646 113.849L55.6894 140.277C57.3446 143.185 60.8433 145.949 63.7512 144.294L65.5473 143.272L66.4026 142.785L67.2579 142.298C70.1658 140.643 70.9435 135.444 69.2882 132.536L54.2449 106.108C54.1475 105.937 53.6948 106.535 53.2567 105.765C51.6738 103.382 48.5738 103.108 45.9224 104.617Z" fill="white" stroke="black" stroke-width="1.5873"/>
<path d="M39.1789 115.25L38.4091 115.689C35.5012 117.344 34.3117 120.625 35.9669 123.533L45.6064 140.468C47.2616 143.376 51.1288 144.798 54.0367 143.143L54.7209 142.753C54.7209 142.753 54.8459 140.984 54.7972 140.898L39.7539 114.47C39.742 114.25 39.1789 115.25 39.1789 115.25Z" fill="#5AE263" stroke="black" stroke-width="1.5873"/>
<path d="M38.7407 114.48C38.8749 114.517 39.0091 114.554 39.0947 114.505L38.9973 114.334L38.7407 114.48Z" fill="#CCCCCC" stroke="black" stroke-width="1.5873"/>
<path d="M132.514 61.7824C130.797 59.3626 126.147 58.9521 123.496 60.4613L119.904 62.506C117.252 64.0152 116.819 67.4323 117.975 70.0587C118.461 70.9139 118.865 70.231 118.963 70.4021L134.006 96.8301C135.661 99.738 138.502 101.745 141.41 100.089L143.035 99.1644L143.89 98.6775L145.002 98.0446C147.91 96.3894 149.431 91.8999 147.776 88.9919L132.733 62.564C132.598 62.5271 133.001 62.6377 132.514 61.7824Z" fill="white" stroke="black" stroke-width="1.5873"/>
<path d="M132.489 62.136L132.917 61.8926C132.344 61.086 132.489 62.136 132.489 62.136Z" fill="#CCCCCC" stroke="black" stroke-width="1.5873"/>
<path d="M134.114 61.2112L133.772 61.406L133.064 61.356L148.108 87.7839C148.156 87.8695 148.972 89.1037 148.972 89.1037L149.656 88.7142C152.564 87.059 153.218 82.8366 151.563 79.9286L142.216 63.5074C140.597 60.4652 137.022 59.556 134.114 61.2112Z" fill="#5AE263" stroke="black" stroke-width="1.5873"/>
<path d="M148.059 87.6985L133.016 61.2705C132.918 61.0995 132.441 62.0508 132.441 62.0508C132.355 62.0995 132.464 62.4903 132.427 62.6245L147.763 89.5656L148.019 89.4196C148.068 89.5051 148.108 87.784 148.059 87.6985Z" fill="#CCCCCC" stroke="black" stroke-width="1.5873"/>
<path d="M132.051 61.3667L131.794 61.5127L131.892 61.6838C131.977 61.6351 132.014 61.5009 132.051 61.3667Z" fill="#CCCCCC" stroke="black" stroke-width="1.5873"/>
<path d="M43.6395 104.785L47.0606 102.837C46.5474 103.129 45.9488 103.47 45.3501 103.811L43.6395 104.785Z" fill="#CCCCCC" stroke="black" stroke-width="1.5873"/>
<path d="M119.502 61.602C118.904 61.9428 118.305 62.2836 117.792 62.5757L121.127 60.677L119.502 61.602Z" fill="#CCCCCC" stroke="black" stroke-width="1.5873"/>
<path d="M132.831 61.9417C132.318 62.2338 131.781 62.0864 131.489 61.5732L126.037 51.9942C111.772 26.9346 79.8299 18.1659 54.8559 32.3816C29.8819 46.5974 21.1132 78.5397 35.3776 103.599L40.8302 113.178C41.1223 113.691 40.9749 114.228 40.4618 114.52C39.9486 114.812 39.4118 114.665 39.1197 114.152L33.6671 104.573C18.8671 78.5725 27.9674 45.4223 53.8822 30.6711C79.797 15.9198 112.947 25.0202 127.747 51.0205L133.2 60.5995C133.492 61.1127 133.345 61.6496 132.831 61.9417Z" fill="black" stroke="black" stroke-width="1.5873"/>
<path d="M68.1592 143.484L64.9091 145.334C61.488 147.281 57.1814 145.882 55.0393 142.119L39.5578 114.921C37.4644 111.244 38.521 107.132 42.0277 105.136L45.2777 103.286C49.0409 101.144 53.8607 102.25 55.808 105.671L71.2895 132.869C73.2856 136.376 71.7513 141.439 68.1592 143.484ZM43.0013 106.846C40.4355 108.307 39.7105 111.211 41.2684 113.948L56.7499 141.145C58.3564 143.968 61.4552 145.035 63.9354 143.623L67.1855 141.773C69.9224 140.215 71.0395 136.409 69.579 133.843L54.0975 106.645C52.5396 103.908 48.7317 103.584 46.2514 104.996L43.0013 106.846Z" fill="black" stroke="black" stroke-width="1.5873"/>
<path d="M56.3433 143.415L54.7183 144.34C51.0406 146.434 47.0287 143.961 45.0327 140.454L35.6854 124.033C33.4946 120.184 34.3433 116.304 37.6789 114.406L39.3039 113.481C39.817 113.188 40.3539 113.336 40.646 113.849C40.9381 114.362 40.7907 114.899 40.2776 115.191L38.6525 116.116C35.7446 117.771 36.0814 120.75 37.3959 123.06L46.7432 139.481C48.2524 142.132 51.1788 144.09 53.7446 142.63L55.3696 141.705C55.8828 141.412 56.4196 141.56 56.7117 142.073C57.0038 142.586 56.8564 143.123 56.3433 143.415Z" fill="black" stroke="black" stroke-width="1.5873"/>
<path d="M65.8039 143.126C65.2907 143.418 64.7539 143.271 64.4618 142.758L47.4224 112.823C47.1303 112.31 47.2776 111.773 47.7908 111.481C48.304 111.189 48.8408 111.336 49.1329 111.849L66.1723 141.784C66.4644 142.297 66.317 142.834 65.8039 143.126Z" fill="black" stroke="black" stroke-width="1.5873"/>
<path d="M145.989 99.1814L142.739 101.031C139.318 102.979 135.011 101.58 132.869 97.8168L117.388 70.6191C115.294 66.9414 116.351 62.8295 119.858 60.8335L123.108 58.9835C126.871 56.8414 131.691 57.948 133.638 61.3691L149.119 88.5668C151.115 92.0734 149.581 97.1366 145.989 99.1814ZM120.831 62.544C118.265 64.0046 117.54 66.9085 119.098 69.6454L134.58 96.8431C136.186 99.6655 139.285 100.733 141.765 99.3208L145.015 97.4708C147.752 95.9129 148.869 92.1063 147.409 89.5405L131.927 62.3428C130.369 59.6059 126.562 59.2822 124.081 60.694L120.831 62.544Z" fill="black" stroke="black" stroke-width="1.5873"/>
<path d="M150.338 89.9115L149.568 90.3496C149.055 90.6417 148.518 90.4943 148.226 89.9812C147.934 89.468 148.081 88.9312 148.594 88.6391L149.364 88.2009C152.101 86.643 152.547 82.6522 151.087 80.0864L141.739 63.6651C140.279 61.0993 136.923 60.1782 134.272 61.6874L133.502 62.1256C132.989 62.4177 132.452 62.2703 132.16 61.7571C131.868 61.244 132.016 60.7071 132.529 60.415L133.298 59.9769C136.891 57.9322 141.454 59.1848 143.45 62.6914L152.797 79.1127C154.939 82.8759 153.759 87.9641 150.338 89.9115Z" fill="black" stroke="black" stroke-width="1.5873"/>
<path d="M144.489 98.3365C143.976 98.6286 143.439 98.4813 143.147 97.9681L126.108 68.0335C125.815 67.5204 125.963 66.9835 126.476 66.6914C126.989 66.3993 127.526 66.5467 127.818 67.0598L144.857 96.9944C145.15 97.5076 145.002 98.0444 144.489 98.3365Z" fill="black" stroke="black" stroke-width="1.5873"/>
<path d="M123.068 60.7046C122.555 60.9967 122.018 60.8493 121.726 60.3362L118.805 55.2045C106.877 34.2503 79.9127 27.0646 58.702 39.1382C37.4912 51.2118 29.9028 78.0659 41.8303 99.0201L44.7514 104.152C45.0435 104.665 44.8961 105.202 44.3829 105.494C43.8698 105.786 43.3329 105.639 43.0408 105.125L40.1198 99.9938C27.6567 78.0988 35.5767 50.0368 57.7283 37.4276C79.8799 24.8185 108.052 32.3359 120.516 54.2309L123.437 59.3625C123.729 59.8757 123.581 60.4125 123.068 60.7046Z" fill="black" stroke="black" stroke-width="1.5873"/>
</svg>
