<svg width="27" height="27" viewBox="0 0 27 27" fill="none" xmlns="http://www.w3.org/2000/svg">
<path d="M21.7574 16.3012L20.6324 14.4338C20.3962 14.0175 20.1824 13.23 20.1824 12.7688V9.9225C20.1824 7.27875 18.6299 4.995 16.3912 3.92625C15.8062 2.89125 14.7262 2.25 13.4887 2.25C12.2624 2.25 11.1599 2.91375 10.5749 3.96C8.38119 5.05125 6.86244 7.3125 6.86244 9.9225V12.7688C6.86244 13.23 6.64869 14.0175 6.41244 14.4225L5.27619 16.3012C4.82619 17.055 4.72494 17.8875 5.00619 18.6525C5.27619 19.4062 5.91744 19.9913 6.74994 20.2725C8.93244 21.015 11.2274 21.375 13.5224 21.375C15.8174 21.375 18.1124 21.015 20.2949 20.2838C21.0824 20.025 21.6899 19.4287 21.9824 18.6525C22.2749 17.8763 22.1962 17.0212 21.7574 16.3012Z" fill="white"/>
<path d="M16.6836 22.5113C16.2111 23.8163 14.9624 24.75 13.4999 24.75C12.6111 24.75 11.7336 24.39 11.1149 23.7488C10.7549 23.4113 10.4849 22.9613 10.3274 22.5C10.4736 22.5225 10.6199 22.5337 10.7774 22.5562C11.0361 22.59 11.3061 22.6237 11.5761 22.6462C12.2174 22.7025 12.8699 22.7362 13.5224 22.7362C14.1636 22.7362 14.8049 22.7025 15.4349 22.6462C15.6711 22.6237 15.9074 22.6125 16.1324 22.5787C16.3124 22.5562 16.4924 22.5338 16.6836 22.5113Z" fill="white"/>
</svg>
