<svg width="18" height="18" viewBox="0 0 18 18" fill="none" xmlns="http://www.w3.org/2000/svg">
<g clip-path="url(#clip0_60_1318)">
<path d="M9 0C4.03725 0 0 4.03725 0 9C0 13.9628 4.03725 18 9 18C13.9628 18 18 13.9628 18 9C18 4.03725 13.9628 0 9 0ZM12.303 10.4047L8.394 12.5452C8.15025 12.6825 7.88175 12.7507 7.61325 12.7507C7.3335 12.7507 7.053 12.6765 6.798 12.528C6.29775 12.2355 6 11.7157 6 11.1368V6.8625C6 6.2835 6.29775 5.76375 6.798 5.47125C7.29675 5.1795 7.89675 5.17425 8.4015 5.4585L12.2955 7.59075C12.8175 7.884 13.1243 8.409 13.1243 8.99925C13.1243 9.5895 12.8175 10.1145 12.3022 10.404L12.303 10.4047ZM11.625 9C11.625 9.06525 11.5815 9.08925 11.5755 9.09375L7.6665 11.235C7.65225 11.2425 7.60875 11.2665 7.55625 11.2343C7.50075 11.202 7.50075 11.154 7.50075 11.1383V6.864C7.50075 6.84825 7.50075 6.80025 7.55625 6.768C7.5765 6.756 7.59525 6.75225 7.61175 6.75225C7.63875 6.75225 7.6605 6.76425 7.674 6.77175L11.568 8.90475C11.5822 8.913 11.625 8.937 11.625 9.00225V9Z" fill="white"/>
</g>
<defs>
<clipPath id="clip0_60_1318">
<rect width="18" height="18" fill="white"/>
</clipPath>
</defs>
</svg>
