<svg width="24" height="23" viewBox="0 0 24 23" fill="none" xmlns="http://www.w3.org/2000/svg">
<path d="M18.9554 20.8715C19.2543 21.7952 18.1941 22.56 17.4118 21.9851L12.1013 18.0821C11.749 17.8231 11.2692 17.8231 10.9169 18.0821L5.60644 21.9851C4.82415 22.56 3.76396 21.7952 4.06277 20.8715L6.11143 14.5383C6.24432 14.1275 6.09855 13.6778 5.74994 13.4231L0.411887 9.52272C-0.36918 8.95201 0.0345018 7.71529 1.00185 7.71529H7.57466C8.00922 7.71529 8.39405 7.43463 8.52683 7.02085L10.5569 0.694687C10.8541 -0.231236 12.1641 -0.231239 12.4613 0.694684L14.4914 7.02085C14.6242 7.43463 15.009 7.71529 15.4436 7.71529H22.0156C22.9829 7.71529 23.3866 8.95195 22.6056 9.52268L17.2682 13.4231C16.9196 13.6778 16.7739 14.1275 16.9068 14.5382L18.9554 20.8715Z" fill="#7B61FF"/>
</svg>
