<svg width="18" height="18" viewBox="0 0 18 18" fill="none" xmlns="http://www.w3.org/2000/svg">
<g clip-path="url(#clip0_59_49)">
<path d="M4.5 0.75C4.5 0.33525 4.836 0 5.25 0H12.75C13.164 0 13.5 0.33525 13.5 0.75C13.5 1.16475 13.164 1.5 12.75 1.5H5.25C4.836 1.5 4.5 1.16475 4.5 0.75ZM3 5.25H15C15.414 5.25 15.75 4.91475 15.75 4.5C15.75 4.08525 15.414 3.75 15 3.75H3C2.586 3.75 2.25 4.08525 2.25 4.5C2.25 4.91475 2.586 5.25 3 5.25ZM18 13.5C18 15.9855 15.9855 18 13.5 18C11.0145 18 9 15.9855 9 13.5C9 11.0145 11.0145 9 13.5 9C15.9855 9 18 11.0145 18 13.5ZM16.125 13.5C16.125 13.0852 15.7898 12.75 15.375 12.75H14.25V11.625C14.25 11.2102 13.9148 10.875 13.5 10.875C13.0852 10.875 12.75 11.2102 12.75 11.625V12.75H11.625C11.2102 12.75 10.875 13.0852 10.875 13.5C10.875 13.9148 11.2102 14.25 11.625 14.25H12.75V15.375C12.75 15.7898 13.0852 16.125 13.5 16.125C13.9148 16.125 14.25 15.7898 14.25 15.375V14.25H15.375C15.7898 14.25 16.125 13.9148 16.125 13.5ZM7.5 13.5C7.5 10.1865 10.1865 7.5 13.5 7.5H3.75C1.68225 7.5 0 9.18225 0 11.25V14.25C0 16.3177 1.68225 18 3.75 18H9.53175C8.286 16.9005 7.5 15.2925 7.5 13.5Z" fill="#E4E4E4"/>
</g>
<defs>
<clipPath id="clip0_59_49">
<rect width="18" height="18" fill="white"/>
</clipPath>
</defs>
</svg>
